<svg width="69" height="48" viewBox="0 0 69 48" fill="none" xmlns="http://www.w3.org/2000/svg">
<rect width="68.4255" height="48" fill="#FF6B09"/>
<path d="M30.3999 6.91182H9.94049V8.44373H30.3999V6.91182Z" fill="white"/>
<path d="M30.3999 12.6236H13.0043V14.1555H30.3999V12.6236Z" fill="white"/>
<path d="M30.3999 18.3359H9.94049V19.8678H30.3999V18.3359Z" fill="white"/>
<path d="M30.3999 24.0476H13.0043V25.5795H30.3999V24.0476Z" fill="white"/>
<path d="M30.3999 29.7594H9.94049V31.2913H30.3999V29.7594Z" fill="white"/>
<path d="M30.3999 35.4717H13.0043V37.0036H30.3999V35.4717Z" fill="white"/>
<path d="M58.485 6.91182H38.0256V8.44373H58.485V6.91182Z" fill="white"/>
<path d="M55.4212 12.6236H38.0256V14.1555H55.4212V12.6236Z" fill="white"/>
<path d="M58.485 18.3359H38.0256V19.8678H58.485V18.3359Z" fill="white"/>
<path d="M55.4212 24.0476H38.0256V25.5795H55.4212V24.0476Z" fill="white"/>
<path d="M58.485 29.7594H38.0256V31.2913H58.485V29.7594Z" fill="white"/>
<path d="M55.4212 35.4717H38.0256V37.0036H55.4212V35.4717Z" fill="white"/>
<path d="M65.8724 5.16797H63.0638V0.949717C63.0638 0.526845 62.7207 0.18376 62.2979 0.18376H39.4009C37.1665 0.18376 35.2298 1.39173 34.2135 3.19997C33.197 1.39154 31.2591 0.18376 29.0246 0.18376H6.12766C5.70479 0.18376 5.3617 0.526845 5.3617 0.949717V5.16797H2.55319C2.13032 5.16797 1.78723 5.51105 1.78723 5.93393V47.0503C1.78723 47.4732 2.13032 47.8162 2.55319 47.8162C10.2434 47.8162 58.1546 47.8162 65.8724 47.8162C66.2952 47.8162 66.6383 47.4732 66.6383 47.0503V5.93393C66.6383 5.51105 66.2952 5.16797 65.8724 5.16797ZM39.4009 1.71567H61.5319C61.5319 8.57485 61.5319 26.6435 61.5319 42.7408H37.7668C36.7133 42.7408 35.66 43.185 34.9787 43.761V6.12791C34.9787 3.68264 36.9364 1.71567 39.4009 1.71567ZM6.89361 1.71567H29.0246C31.4197 1.71567 33.358 3.5797 33.4373 5.95936C33.4383 5.99227 33.4413 6.09549 33.4468 6.12791V6.13389V6.13539V43.7581C32.7673 43.1843 31.7254 42.7408 30.6687 42.7408H6.89361C6.89361 26.6489 6.89361 8.57266 6.89361 1.71567ZM3.31915 6.69988H5.3617V43.5067C5.3617 43.9296 5.70479 44.2727 6.12766 44.2727H30.6687C31.8363 44.2727 32.9647 45.0387 33.3259 46.2843H3.31915V6.69988ZM65.1064 46.2843H35.1001C35.4637 45.0326 36.5808 44.2727 37.7668 44.2727H62.2979C62.7207 44.2727 63.0638 43.9296 63.0638 43.5067V6.69988H65.1064V46.2843Z" fill="white"/>
</svg>
